<svg width="150" height="30" viewBox="0 0 150 30" fill="none" xmlns="http://www.w3.org/2000/svg">
<rect width="150" height="30" rx="6" fill="white"/>
<path d="M62.4588 13.3281H60.5923C60.5582 13.0866 60.4886 12.8722 60.3835 12.6847C60.2784 12.4943 60.1435 12.3324 59.9787 12.1989C59.8139 12.0653 59.6236 11.9631 59.4077 11.892C59.1946 11.821 58.9631 11.7855 58.7131 11.7855C58.2614 11.7855 57.8679 11.8977 57.5327 12.1222C57.1974 12.3437 56.9375 12.6676 56.7528 13.0938C56.5682 13.517 56.4759 14.0312 56.4759 14.6364C56.4759 15.2585 56.5682 15.7812 56.7528 16.2045C56.9403 16.6278 57.2017 16.9474 57.5369 17.1634C57.8722 17.3793 58.2599 17.4872 58.7003 17.4872C58.9474 17.4872 59.1761 17.4545 59.3864 17.3892C59.5994 17.3239 59.7884 17.2287 59.9531 17.1037C60.1179 16.9759 60.2543 16.821 60.3622 16.6392C60.473 16.4574 60.5497 16.25 60.5923 16.017L62.4588 16.0256C62.4105 16.4261 62.2898 16.8125 62.0966 17.1847C61.9063 17.554 61.6491 17.8849 61.3253 18.1776C61.0043 18.4673 60.6207 18.6974 60.1747 18.8679C59.7315 19.0355 59.2301 19.1193 58.6705 19.1193C57.892 19.1193 57.196 18.9432 56.5824 18.5909C55.9716 18.2386 55.4886 17.7287 55.1335 17.0611C54.7812 16.3935 54.6051 15.5852 54.6051 14.6364C54.6051 13.6847 54.7841 12.875 55.142 12.2074C55.5 11.5398 55.9858 11.0312 56.5994 10.6818C57.2131 10.3295 57.9034 10.1534 58.6705 10.1534C59.1761 10.1534 59.6449 10.2244 60.0767 10.3665C60.5114 10.5085 60.8963 10.7159 61.2315 10.9886C61.5668 11.2585 61.8395 11.5895 62.0497 11.9815C62.2628 12.3736 62.3991 12.8224 62.4588 13.3281ZM66.7053 19.1278C66.0433 19.1278 65.4709 18.9872 64.9879 18.706C64.5078 18.4219 64.1371 18.027 63.8757 17.5213C63.6143 17.0128 63.4837 16.4233 63.4837 15.7528C63.4837 15.0767 63.6143 14.4858 63.8757 13.9801C64.1371 13.4716 64.5078 13.0767 64.9879 12.7955C65.4709 12.5114 66.0433 12.3693 66.7053 12.3693C67.3672 12.3693 67.9382 12.5114 68.4183 12.7955C68.9013 13.0767 69.2734 13.4716 69.5348 13.9801C69.7962 14.4858 69.9268 15.0767 69.9268 15.7528C69.9268 16.4233 69.7962 17.0128 69.5348 17.5213C69.2734 18.027 68.9013 18.4219 68.4183 18.706C67.9382 18.9872 67.3672 19.1278 66.7053 19.1278ZM66.7138 17.7216C67.0149 17.7216 67.2663 17.6364 67.468 17.4659C67.6697 17.2926 67.8217 17.0568 67.924 16.7585C68.0291 16.4602 68.0817 16.1207 68.0817 15.7401C68.0817 15.3594 68.0291 15.0199 67.924 14.7216C67.8217 14.4233 67.6697 14.1875 67.468 14.0142C67.2663 13.8409 67.0149 13.7543 66.7138 13.7543C66.4098 13.7543 66.1541 13.8409 65.9467 14.0142C65.7422 14.1875 65.5874 14.4233 65.4822 14.7216C65.38 15.0199 65.3288 15.3594 65.3288 15.7401C65.3288 16.1207 65.38 16.4602 65.4822 16.7585C65.5874 17.0568 65.7422 17.2926 65.9467 17.4659C66.1541 17.6364 66.4098 17.7216 66.7138 17.7216ZM72.9226 15.2159V19H71.1072V12.4545H72.8374V13.6094H72.9141C73.0589 13.2287 73.3018 12.9276 73.6428 12.706C73.9837 12.4815 74.397 12.3693 74.8828 12.3693C75.3374 12.3693 75.7337 12.4688 76.0717 12.6676C76.4098 12.8665 76.6726 13.1506 76.8601 13.5199C77.0476 13.8864 77.1413 14.3239 77.1413 14.8324V19H75.326V15.1562C75.3288 14.7557 75.2266 14.4432 75.0192 14.2188C74.8118 13.9915 74.5263 13.8778 74.1626 13.8778C73.9183 13.8778 73.7024 13.9304 73.5149 14.0355C73.3303 14.1406 73.1854 14.294 73.0803 14.4957C72.978 14.6946 72.9254 14.9347 72.9226 15.2159ZM82.0536 12.4545V13.8182H78.1119V12.4545H82.0536ZM79.0067 10.8864H80.8221V16.9886C80.8221 17.1562 80.8477 17.2869 80.8988 17.3807C80.9499 17.4716 81.021 17.5355 81.1119 17.5724C81.2056 17.6094 81.3136 17.6278 81.4357 17.6278C81.521 17.6278 81.6062 17.6207 81.6914 17.6065C81.7766 17.5895 81.842 17.5767 81.8874 17.5682L82.1729 18.919C82.082 18.9474 81.9542 18.9801 81.7894 19.017C81.6246 19.0568 81.4244 19.081 81.1886 19.0895C80.7511 19.1065 80.3675 19.0483 80.038 18.9148C79.7113 18.7812 79.457 18.5739 79.2752 18.2926C79.0934 18.0114 79.0039 17.6562 79.0067 17.2273V10.8864ZM83.2362 19V12.4545H84.9961V13.5966H85.0643C85.1836 13.1903 85.3839 12.8835 85.6651 12.6761C85.9464 12.4659 86.2702 12.3608 86.6367 12.3608C86.7276 12.3608 86.8256 12.3665 86.9308 12.3778C87.0359 12.3892 87.1282 12.4048 87.2077 12.4247V14.0355C87.1225 14.0099 87.0046 13.9872 86.854 13.9673C86.7035 13.9474 86.5657 13.9375 86.4407 13.9375C86.1737 13.9375 85.935 13.9957 85.7248 14.1122C85.5174 14.2259 85.3526 14.3849 85.2305 14.5895C85.1112 14.794 85.0515 15.0298 85.0515 15.2969V19H83.2362ZM88.1463 19V12.4545H89.9616V19H88.1463ZM89.0582 11.6108C88.7884 11.6108 88.5568 11.5213 88.3636 11.3423C88.1733 11.1605 88.0781 10.9432 88.0781 10.6903C88.0781 10.4403 88.1733 10.2259 88.3636 10.0469C88.5568 9.86506 88.7884 9.77415 89.0582 9.77415C89.3281 9.77415 89.5582 9.86506 89.7486 10.0469C89.9418 10.2259 90.0384 10.4403 90.0384 10.6903C90.0384 10.9432 89.9418 11.1605 89.7486 11.3423C89.5582 11.5213 89.3281 11.6108 89.0582 11.6108ZM91.4499 19V10.2727H93.2653V13.554H93.3207C93.4002 13.3778 93.5153 13.1989 93.6658 13.017C93.8192 12.8324 94.0181 12.679 94.2624 12.5568C94.5096 12.4318 94.8164 12.3693 95.1829 12.3693C95.6602 12.3693 96.1005 12.4943 96.5039 12.7443C96.9073 12.9915 97.2298 13.3651 97.4712 13.8651C97.7127 14.3622 97.8335 14.9858 97.8335 15.7358C97.8335 16.4659 97.7156 17.0824 97.4798 17.5852C97.2468 18.0852 96.9286 18.4645 96.5252 18.723C96.1246 18.9787 95.6758 19.1065 95.1786 19.1065C94.8263 19.1065 94.5266 19.0483 94.2795 18.9318C94.0352 18.8153 93.8349 18.669 93.6786 18.4929C93.5224 18.3139 93.4031 18.1335 93.3207 17.9517H93.2397V19H91.4499ZM93.2269 15.7273C93.2269 16.1165 93.2809 16.456 93.3888 16.7457C93.4968 17.0355 93.6531 17.2614 93.8576 17.4233C94.0621 17.5824 94.3107 17.6619 94.6033 17.6619C94.8988 17.6619 95.1488 17.581 95.3533 17.419C95.5579 17.2543 95.7127 17.027 95.8178 16.7372C95.9258 16.4446 95.9798 16.108 95.9798 15.7273C95.9798 15.3494 95.9272 15.017 95.8221 14.7301C95.717 14.4432 95.5621 14.2187 95.3576 14.0568C95.1531 13.8949 94.9016 13.8139 94.6033 13.8139C94.3079 13.8139 94.0579 13.892 93.8533 14.0483C93.6516 14.2045 93.4968 14.4261 93.3888 14.7131C93.2809 15 93.2269 15.3381 93.2269 15.7273ZM103.242 16.2131V12.4545H105.058V19H103.315V17.8111H103.246C103.099 18.1946 102.853 18.5028 102.509 18.7358C102.168 18.9687 101.752 19.0852 101.261 19.0852C100.823 19.0852 100.438 18.9858 100.106 18.7869C99.7734 18.5881 99.5135 18.3054 99.326 17.9389C99.1413 17.5724 99.0476 17.1335 99.0447 16.6222V12.4545H100.86V16.2983C100.863 16.6847 100.967 16.9901 101.171 17.2145C101.376 17.4389 101.65 17.5511 101.994 17.5511C102.212 17.5511 102.417 17.5014 102.607 17.402C102.798 17.2997 102.951 17.1491 103.067 16.9503C103.187 16.7514 103.245 16.5057 103.242 16.2131ZM109.991 12.4545V13.8182H106.049V12.4545H109.991ZM106.944 10.8864H108.76V16.9886C108.76 17.1562 108.785 17.2869 108.836 17.3807C108.887 17.4716 108.958 17.5355 109.049 17.5724C109.143 17.6094 109.251 17.6278 109.373 17.6278C109.458 17.6278 109.544 17.6207 109.629 17.6065C109.714 17.5895 109.779 17.5767 109.825 17.5682L110.11 18.919C110.02 18.9474 109.892 18.9801 109.727 19.017C109.562 19.0568 109.362 19.081 109.126 19.0895C108.689 19.1065 108.305 19.0483 107.975 18.9148C107.649 18.7812 107.395 18.5739 107.213 18.2926C107.031 18.0114 106.941 17.6562 106.944 17.2273V10.8864ZM114.086 19.1278C113.413 19.1278 112.833 18.9915 112.348 18.7188C111.865 18.4432 111.493 18.054 111.231 17.5511C110.97 17.0455 110.839 16.4474 110.839 15.7571C110.839 15.0838 110.97 14.4929 111.231 13.9844C111.493 13.4759 111.86 13.0795 112.335 12.7955C112.812 12.5114 113.372 12.3693 114.014 12.3693C114.446 12.3693 114.848 12.4389 115.22 12.5781C115.595 12.7145 115.922 12.9205 116.2 13.196C116.481 13.4716 116.7 13.8182 116.856 14.2358C117.012 14.6506 117.091 15.1364 117.091 15.6932V16.1918H111.564V15.0668H115.382C115.382 14.8054 115.325 14.5739 115.211 14.3722C115.098 14.1705 114.94 14.0128 114.738 13.8991C114.539 13.7827 114.308 13.7244 114.044 13.7244C113.768 13.7244 113.524 13.7884 113.311 13.9162C113.1 14.0412 112.936 14.2102 112.816 14.4233C112.697 14.6335 112.636 14.8679 112.633 15.1264V16.196C112.633 16.5199 112.693 16.7997 112.812 17.0355C112.934 17.2713 113.106 17.4531 113.328 17.581C113.549 17.7088 113.812 17.7727 114.116 17.7727C114.318 17.7727 114.502 17.7443 114.67 17.6875C114.838 17.6307 114.981 17.5455 115.1 17.4318C115.22 17.3182 115.311 17.179 115.373 17.0142L117.052 17.125C116.967 17.5284 116.792 17.8807 116.528 18.1818C116.267 18.4801 115.929 18.7131 115.514 18.8807C115.102 19.0455 114.626 19.1278 114.086 19.1278Z" fill="#297EFF"/>
<path fill-rule="evenodd" clip-rule="evenodd" d="M43.7544 11.0134C44.5397 12.1448 44.9999 13.5187 44.9999 15.0002C44.9999 16.4817 44.5397 17.8557 43.7544 18.987L41.9412 17.1737C42.2973 16.5294 42.5 15.7884 42.5 15.0002C42.5 14.212 42.2973 13.4711 41.9412 12.8267L43.7544 11.0134Z" fill="#8FC7FF"/>
<path fill-rule="evenodd" clip-rule="evenodd" d="M41.9869 9.24551L40.1735 11.0588C39.5292 10.7027 38.7883 10.5 38.0001 10.5C35.5148 10.5 33.5 12.5148 33.5 15.0001C33.5 17.4854 35.5148 19.5002 38.0001 19.5002C38.7883 19.5002 39.5292 19.2975 40.1735 18.9414L41.9869 20.7547C40.8555 21.5399 39.4816 22.0002 38.0001 22.0002C34.1341 22.0002 31 18.8661 31 15.0001C31 11.1341 34.1341 8 38.0001 8C39.4816 8 40.8555 8.46024 41.9869 9.24551Z" fill="#297EFF"/>
</svg>
